<svg width="499" height="45" viewBox="0 0 499 45" fill="none" xmlns="http://www.w3.org/2000/svg">
<path d="M22.2252 44.53L0 22.3048H22.2252V44.53Z" fill="#324E53"/>
<path d="M22.2252 22.2252L0 0L22.2252 2.65032e-07V22.2252Z" fill="#324E53"/>
<path d="M44.53 44.53L22.3048 22.3048H44.53V44.53Z" fill="#324E53"/>
<path d="M44.53 22.2252L22.3048 0L44.53 2.65032e-07V22.2252Z" fill="#FF6D00"/>
<path d="M469.297 43.7646V0.764239H499.002V7.47181H476.843V18.2518H495.588V24.9594H476.843V37.057H499.002V43.7646H469.297Z" fill="#FAF9F7"/>
<path d="M448.539 27.1154H440.334V43.7646H432.668V0.764239H448.539C458.421 0.764239 464.11 5.55536 464.11 13.9398C464.11 22.3243 458.361 27.1154 448.539 27.1154ZM440.334 7.35203V20.5276H448.12C453.57 20.5276 456.564 18.1919 456.564 13.9398C456.564 9.62781 453.629 7.35203 448.12 7.35203H440.334Z" fill="#FAF9F7"/>
<path d="M426.583 22.2644C426.583 28.9121 425.086 34.2422 422.151 38.3147C419.217 42.3871 415.384 44.4233 410.533 44.4233C405.682 44.4233 401.789 42.3871 398.854 38.3147C395.92 34.2422 394.483 28.9121 394.483 22.2644C394.483 15.6167 395.92 10.2866 398.854 6.21415C401.789 2.14169 405.682 0.105469 410.533 0.105469C415.384 0.105469 419.217 2.14169 422.151 6.21415C425.086 10.2866 426.583 15.6167 426.583 22.2644ZM419.157 22.2644C419.157 12.6223 415.983 6.87293 410.533 6.87293C405.083 6.87293 401.909 12.6223 401.909 22.2644C401.909 31.9065 405.083 37.6559 410.533 37.6559C415.983 37.6559 419.157 31.9065 419.157 22.2644Z" fill="#FAF9F7"/>
<path d="M374.862 0.105469C382.468 0.105469 388.158 4.65703 390.493 12.5025L383.367 14.9579C382.169 9.86738 379.055 6.87293 374.802 6.87293C371.868 6.87293 369.412 8.31027 367.556 11.1849C365.699 13.9997 364.741 17.7128 364.741 22.2644C364.741 26.816 365.699 30.5291 367.556 33.4038C369.412 36.2186 371.868 37.6559 374.802 37.6559C379.055 37.6559 382.169 34.6614 383.367 29.5709L390.493 32.0263C388.158 39.8718 382.468 44.4233 374.862 44.4233C369.772 44.4233 365.579 42.3871 362.286 38.2548C358.992 34.1224 357.375 28.7923 357.375 22.2644C357.375 15.7365 358.992 10.4663 362.286 6.33393C365.579 2.20159 369.772 0.105469 374.862 0.105469Z" fill="#FAF9F7"/>
<path d="M336.497 44.4233C332.724 44.4233 329.13 43.5849 325.837 41.9679C322.543 40.3509 320.027 38.1949 318.41 35.4999L324.339 30.5291C327.394 35.2603 331.885 37.9553 336.736 37.9553C341.827 37.9553 345.241 35.44 345.241 31.5472C345.241 29.2115 344.103 27.7742 341.048 26.7561C340.27 26.4566 337.994 25.8577 334.341 24.9594C329.25 23.7017 327.034 22.8034 325.178 21.6056C322.303 19.6293 320.926 16.9343 320.926 13.1613C320.926 9.32838 322.363 6.21415 325.298 3.7587C328.232 1.30325 331.945 0.105469 336.437 0.105469C343.324 0.105469 349.313 3.09992 352.427 7.95093L346.858 12.7421C344.163 8.48993 340.689 6.51359 336.197 6.51359C331.586 6.51359 328.352 8.84927 328.352 12.3827C328.352 13.8201 328.891 14.9579 329.909 15.7365C330.987 16.5151 333.502 17.4134 337.515 18.3117C340.809 19.0903 343.145 19.6892 344.402 20.1683C345.72 20.5875 346.858 21.1265 347.816 21.6655C351.17 23.6419 352.787 26.6363 352.787 30.7686C352.787 34.7812 351.23 38.0751 348.115 40.6503C345.061 43.1657 341.168 44.4233 336.497 44.4233Z" fill="#FAF9F7"/>
<path d="M315.679 22.2644C315.679 28.9121 314.182 34.2422 311.247 38.3147C308.312 42.3871 304.48 44.4233 299.629 44.4233C294.778 44.4233 290.885 42.3871 287.95 38.3147C285.016 34.2422 283.578 28.9121 283.578 22.2644C283.578 15.6167 285.016 10.2866 287.95 6.21415C290.885 2.14169 294.778 0.105469 299.629 0.105469C304.48 0.105469 308.312 2.14169 311.247 6.21415C314.182 10.2866 315.679 15.6167 315.679 22.2644ZM308.253 22.2644C308.253 12.6223 305.078 6.87293 299.629 6.87293C294.179 6.87293 291.005 12.6223 291.005 22.2644C291.005 31.9065 294.179 37.6559 299.629 37.6559C305.078 37.6559 308.253 31.9065 308.253 22.2644Z" fill="#FAF9F7"/>
<path d="M258.269 43.7646H248.147V0.764239H258.269C264.677 0.764239 269.648 2.68069 273.181 6.51359C276.774 10.2866 278.571 15.5568 278.571 22.2644C278.571 28.972 276.774 34.2422 273.181 38.0751C269.648 41.8481 264.677 43.7646 258.269 43.7646ZM255.634 7.35203V37.1768H258.269C266.593 37.1768 271.025 31.9065 271.025 22.2644C271.025 12.5025 266.593 7.35203 258.209 7.35203H255.634Z" fill="#FAF9F7"/>
<path d="M229.845 37.057H241.284V43.7646H210.74V37.057H222.179V7.47181H210.74V0.764239H241.284V7.47181H229.845V37.057Z" fill="#FAF9F7"/>
<path d="M174.531 43.7646V0.764239H204.236V7.47181H182.077V18.2518H200.822V24.9594H182.077V37.057H204.236V43.7646H174.531Z" fill="#FAF9F7"/>
<path d="M168.445 43.7646H140.537V0.764239H148.203V37.057H168.445V43.7646Z" fill="#FAF9F7"/>
<path d="M104.328 43.7646V0.764239H134.033V7.47181H111.874V18.2518H130.619V24.9594H111.874V37.057H134.033V43.7646H104.328Z" fill="#FAF9F7"/>
<path d="M98.8413 0.764239V7.47181H86.2047V43.7646H78.5389V7.47181H65.9023V0.764239H98.8413Z" fill="#FAF9F7"/>
</svg>
