<svg width="159" height="24" viewBox="0 0 159 24" fill="none" xmlns="http://www.w3.org/2000/svg">
<path d="M0 0.5H11.5V12L0 0.5Z" fill="#EEEAE4"/>
<path d="M0 12H11.5V23.5L0 12Z" fill="#EEEAE4"/>
<path d="M11.5 0.5H23V12L11.5 0.5Z" fill="#FF6D00"/>
<path d="M11.5 12H23V23.5L11.5 12Z" fill="#EEEAE4"/>
<path d="M149.33 18.3068V5.69324H158.043V7.66081H151.543V10.823H157.042V12.7905H151.543V16.3392H158.043V18.3068H149.33Z" fill="#EEEAE4"/>
<path d="M143.241 13.423H140.834V18.3068H138.585V5.69324H143.241C146.139 5.69324 147.808 7.09865 147.808 9.55811C147.808 12.0176 146.122 13.423 143.241 13.423ZM140.834 7.62567V11.4905H143.118C144.716 11.4905 145.595 10.8054 145.595 9.55811C145.595 8.29324 144.734 7.62567 143.118 7.62567H140.834Z" fill="#EEEAE4"/>
<path d="M136.8 12C136.8 13.95 136.361 15.5135 135.5 16.7081C134.64 17.9027 133.515 18.5 132.092 18.5C130.669 18.5 129.527 17.9027 128.667 16.7081C127.806 15.5135 127.384 13.95 127.384 12C127.384 10.05 127.806 8.48649 128.667 7.29189C129.527 6.0973 130.669 5.5 132.092 5.5C133.515 5.5 134.64 6.0973 135.5 7.29189C136.361 8.48649 136.8 10.05 136.8 12ZM134.622 12C134.622 9.17162 133.691 7.48513 132.092 7.48513C130.494 7.48513 129.563 9.17162 129.563 12C129.563 14.8284 130.494 16.5149 132.092 16.5149C133.691 16.5149 134.622 14.8284 134.622 12Z" fill="#EEEAE4"/>
<path d="M121.629 5.5C123.86 5.5 125.529 6.83513 126.214 9.13649L124.123 9.85676C123.772 8.36351 122.859 7.48513 121.611 7.48513C120.751 7.48513 120.03 7.90676 119.486 8.75C118.941 9.57568 118.66 10.6649 118.66 12C118.66 13.3351 118.941 14.4243 119.486 15.2676C120.03 16.0932 120.751 16.5149 121.611 16.5149C122.859 16.5149 123.772 15.6365 124.123 14.1432L126.214 14.8635C125.529 17.1649 123.86 18.5 121.629 18.5C120.136 18.5 118.906 17.9027 117.94 16.6905C116.973 15.4784 116.499 13.9149 116.499 12C116.499 10.0851 116.973 8.53919 117.94 7.32703C118.906 6.11487 120.136 5.5 121.629 5.5Z" fill="#EEEAE4"/>
<path d="M110.375 18.5C109.268 18.5 108.214 18.2541 107.248 17.7797C106.282 17.3054 105.544 16.673 105.07 15.8824L106.809 14.4243C107.705 15.8122 109.022 16.6027 110.445 16.6027C111.938 16.6027 112.94 15.8649 112.94 14.723C112.94 14.0378 112.606 13.6162 111.71 13.3176C111.482 13.2297 110.814 13.0541 109.742 12.7905C108.249 12.4216 107.599 12.1581 107.055 11.8068C106.211 11.227 105.807 10.4365 105.807 9.32973C105.807 8.20541 106.229 7.29189 107.09 6.57162C107.951 5.85135 109.04 5.5 110.357 5.5C112.378 5.5 114.134 6.37838 115.048 7.80135L113.414 9.20676C112.624 7.95946 111.605 7.37973 110.287 7.37973C108.934 7.37973 107.986 8.06486 107.986 9.10135C107.986 9.52297 108.144 9.85676 108.442 10.0851C108.759 10.3135 109.497 10.577 110.674 10.8405C111.64 11.0689 112.325 11.2446 112.694 11.3851C113.08 11.5081 113.414 11.6662 113.695 11.8243C114.679 12.4041 115.153 13.2824 115.153 14.4946C115.153 15.6716 114.697 16.6378 113.783 17.3932C112.887 18.1311 111.745 18.5 110.375 18.5Z" fill="#EEEAE4"/>
<path d="M104.268 12C104.268 13.95 103.829 15.5135 102.968 16.7081C102.107 17.9027 100.983 18.5 99.5602 18.5C98.1372 18.5 96.9953 17.9027 96.1345 16.7081C95.2737 15.5135 94.8521 13.95 94.8521 12C94.8521 10.05 95.2737 8.48649 96.1345 7.29189C96.9953 6.0973 98.1372 5.5 99.5602 5.5C100.983 5.5 102.107 6.0973 102.968 7.29189C103.829 8.48649 104.268 10.05 104.268 12ZM102.09 12C102.09 9.17162 101.159 7.48513 99.5602 7.48513C97.9615 7.48513 97.0304 9.17162 97.0304 12C97.0304 14.8284 97.9615 16.5149 99.5602 16.5149C101.159 16.5149 102.09 14.8284 102.09 12Z" fill="#EEEAE4"/>
<path d="M87.4278 18.3068H84.4589V5.69324H87.4278C89.3076 5.69324 90.7657 6.2554 91.8022 7.37973C92.8562 8.48648 93.3832 10.0324 93.3832 12C93.3832 13.9676 92.8562 15.5135 91.8022 16.6378C90.7657 17.7446 89.3076 18.3068 87.4278 18.3068ZM86.6549 7.62567V16.3743H87.4278C89.8697 16.3743 91.1697 14.8284 91.1697 12C91.1697 9.13648 89.8697 7.62567 87.4103 7.62567H86.6549Z" fill="#EEEAE4"/>
<path d="M79.0901 16.3392H82.4455V18.3068H73.4861V16.3392H76.8415V7.66081H73.4861V5.69324H82.4455V7.66081H79.0901V16.3392Z" fill="#EEEAE4"/>
<path d="M62.8645 18.3068V5.69324H71.5781V7.66081H65.0781V10.823H70.5767V12.7905H65.0781V16.3392H71.5781V18.3068H62.8645Z" fill="#EEEAE4"/>
<path d="M61.0795 18.3068H52.893V5.69324H55.1417V16.3392H61.0795V18.3068Z" fill="#EEEAE4"/>
<path d="M42.2715 18.3068V5.69324H50.985V7.66081H44.485V10.823H49.9837V12.7905H44.485V16.3392H50.985V18.3068H42.2715Z" fill="#EEEAE4"/>
<path d="M40.6622 5.69324V7.66081H36.9554V18.3068H34.7068V7.66081H31V5.69324H40.6622Z" fill="#EEEAE4"/>
</svg>
