<svg width="37" height="50" viewBox="0 0 37 50" fill="none" xmlns="http://www.w3.org/2000/svg">
<path d="M30.6047 22.7766C30.5859 19.3359 32.1422 16.7391 35.2922 14.8266C33.5297 12.3047 30.8672 10.9172 27.3516 10.6453C24.0234 10.3828 20.3859 12.5859 19.0547 12.5859C17.6484 12.5859 14.4234 10.7391 11.8922 10.7391C6.66094 10.8234 1.10156 14.9109 1.10156 23.2266C1.10156 25.6828 1.55156 28.2203 2.45156 30.8391C3.65156 34.2797 7.98281 42.7172 12.5016 42.5766C14.8641 42.5203 16.5328 40.8984 19.6078 40.8984C22.5891 40.8984 24.1359 42.5766 26.7703 42.5766C31.3266 42.5109 35.2453 34.8422 36.3891 31.3922C30.2766 28.5141 30.6047 22.9547 30.6047 22.7766ZM25.2984 7.38281C27.8578 4.34531 27.6234 1.57969 27.5484 0.585938C25.2891 0.717188 22.6734 2.12344 21.1828 3.85781C19.5422 5.71406 18.5766 8.01094 18.7828 10.5984C21.2297 10.7859 23.4609 9.52969 25.2984 7.38281Z" fill="#738889"/>
</svg>
