<svg width="85" height="56" viewBox="0 0 85 56" fill="none" xmlns="http://www.w3.org/2000/svg">
<path d="M42.6406 0.425236C19.6367 0.425236 0.988281 12.7716 0.988281 28.0018C0.988281 43.2318 19.6367 55.5781 42.6406 55.5781C65.6446 55.5781 84.293 43.2318 84.293 28.0018C84.293 12.7716 65.6446 0.425236 42.6406 0.425236ZM42.6406 1.72376C53.5143 1.72376 63.7196 4.51559 71.3765 9.58481C78.8686 14.5452 82.9944 21.0856 82.9944 28.0018C82.9944 34.9177 78.8686 41.4584 71.3765 46.4185C63.7196 51.4878 53.5143 54.2796 42.6406 54.2796C31.767 54.2796 21.5618 51.4878 13.9048 46.4185C6.41282 41.4584 2.28681 34.9177 2.28681 28.0018C2.28681 21.0856 6.41282 14.5452 13.9048 9.58481C21.5617 4.51559 31.767 1.72376 42.6406 1.72376Z" fill="#738889"/>
<path d="M31.3789 42.1406H32.2392V39.9331H31.3789V42.1406Z" fill="#738889"/>
<path d="M35.2444 41.4957H34.2599V39.2465H35.2444V41.4957ZM29.5435 41.4957H28.6373V39.2465H29.5435V41.4957ZM27.5983 41.4957H26.6921V39.2465H27.5983V41.4957ZM25.6533 41.4957H24.7472V39.2465H25.6533V41.4957ZM23.6806 41.4957H22.7745V39.2465H23.6806V41.4957ZM21.6861 41.4957H20.7799V39.2465H21.6861V41.4957ZM19.7504 38.0291L19.75 42.6847H30.5492V39.2465H33.0709V42.9492H36.3971V39.5272L37.0702 37.9871L19.7504 38.0291Z" fill="#738889"/>
<path d="M64.2977 41.4957H63.3707V39.2465H64.2977V41.4957ZM62.4429 41.4957H61.516V39.2465H62.4429V41.4957ZM60.4532 41.4957H59.5262V39.2465H60.4532V41.4957ZM58.4351 41.4957H57.5081V39.2465H58.4351V41.4957ZM56.4734 41.4957H55.5465V39.2465H56.4734V41.4957ZM50.8166 41.4957H49.8386V39.2465H50.8166V41.4957ZM48.0391 37.9871L48.7041 39.4875V42.9492H52.0586V39.2465H54.5631V42.6847H65.2954L65.2958 38.0291L48.0391 37.9871Z" fill="#738889"/>
<path d="M52.8984 42.1406H53.7195V39.9331H52.8984V42.1406Z" fill="#738889"/>
<path d="M59.5492 21.2311L66.4357 18.1112L72.3656 19.4874L70.6769 22.6526L59.5492 21.2311ZM67.0733 29.3136L52.7311 27.7871L58.1065 21.9838L70.1793 23.5397L67.0733 29.3136ZM64.1622 34.6029L53.7718 34.6059L51.869 28.5368L66.24 30.8395L64.1622 34.6029ZM33.0019 34.6059L34.5506 28.4613H50.543L52.0917 34.6059H33.0019ZM20.9317 34.6029L18.8538 30.8395L33.2248 28.5368L31.3218 34.6059L20.9317 34.6029ZM14.9144 23.5397L26.9874 21.9838L32.3628 27.7871L18.0206 29.3136L14.9144 23.5397ZM12.7281 19.4874L18.658 18.1112L25.5445 21.2311L14.4168 22.6526L12.7281 19.4874ZM35.0473 14.252C35.0456 14.2561 35.0436 14.2606 35.0419 14.265C35.0473 14.252 41.0406 17.2156 41.0406 17.2156L27.3828 20.9398L20.3016 17.7325C25.2168 16.5722 30.1322 15.412 35.0473 14.252ZM42.5469 12.4462L48.6539 13.9209L42.5469 16.8363L36.4398 13.9209L42.5469 12.4462ZM56.8443 21.7914L51.0347 27.4898H34.0591L28.2493 21.7914L42.5469 17.5466L56.8443 21.7914ZM64.7922 17.7325L57.7111 20.9398L44.0532 17.2156C44.0532 17.2156 50.0463 14.252 50.0518 14.265C50.05 14.2606 50.0481 14.2561 50.0463 14.252C54.9615 15.412 59.8768 16.5722 64.7922 17.7325ZM42.5469 11.9573L11.6055 18.8933L19.7747 35.3086H65.3189L73.4882 18.8933L42.5469 11.9573Z" fill="#738889"/>
<path d="M37.2734 43.6625V44.4531H47.8209V43.6625H37.2734Z" fill="#738889"/>
<path d="M41.5742 42.9492H42.1956V39.934H41.5742V42.9492Z" fill="#738889"/>
<path d="M40.2539 42.9492H40.875V39.934H40.2539V42.9492Z" fill="#738889"/>
<path d="M38.9648 42.9492H39.5862V39.934H38.9648V42.9492Z" fill="#738889"/>
<path d="M44.1445 42.9492H44.7659V39.934H44.1445V42.9492Z" fill="#738889"/>
<path d="M42.8633 42.9492H43.4846V39.934H42.8633V42.9492Z" fill="#738889"/>
<path d="M46.793 42.9492H47.4143V39.934H46.793V42.9492Z" fill="#738889"/>
<path d="M45.4727 42.9492H46.094V39.934H45.4727V42.9492Z" fill="#738889"/>
<path d="M37.6797 42.9492H38.301V39.934H37.6797V42.9492Z" fill="#738889"/>
<path d="M74.0744 19.178L73.9173 19.4866L65.8993 35.5978L65.7201 35.9579H65.318H19.7738H19.3717L19.1926 35.5978L11.0754 19.2875L11.0197 19.178L10.3398 20.1692V23.7689L19.1485 42.7031V37.419L38.0451 37.3761L37.2547 39.217H47.8581L47.0677 37.3761L65.9456 37.419V42.7031L74.7544 23.7689V20.1692L74.0744 19.178Z" fill="#738889"/>
<path d="M64.4332 23.4548L61.9985 23.141L58.4258 27.7413L61.2594 28.043L64.4332 23.4548Z" fill="#738889"/>
<path d="M68.4203 23.9661L66.0053 23.6548L63.0234 28.2283L65.8337 28.5273L68.4203 23.9661Z" fill="#738889"/>
<path d="M19.2585 28.5273L22.0687 28.2282L19.087 23.6551L16.6719 23.9663L19.2585 28.5273Z" fill="#738889"/>
<path d="M35.0021 29.3252L34.8281 30.0156H50.2659L50.0918 29.3252H35.0021Z" fill="#738889"/>
<path d="M42.5479 12.8892L38.0742 13.9811L38.8659 14.3589L42.5479 13.4307L46.2318 14.3594L47.0234 13.9815L42.5479 12.8892Z" fill="#738889"/>
<path d="M42.5456 14.1058L39.7891 14.7988L40.7251 15.2457L42.5456 14.784L44.3681 15.2461L45.3041 14.7992L42.5456 14.1058Z" fill="#738889"/>
<path d="M42.5455 15.3569L41.5078 15.6214L42.5471 16.1172L43.585 15.6218L42.5455 15.3569Z" fill="#738889"/>
<path d="M16.6708 19.9532L19.5482 19.2279L18.5906 18.794L14.3008 19.7895L15.4769 21.8633L17.7288 21.5757L16.6708 19.9532Z" fill="#738889"/>
<path d="M69.6125 21.8633L70.7888 19.7893L66.5017 18.7944L65.543 19.2288L68.4183 19.9536L67.3607 21.5757L69.6125 21.8633Z" fill="#738889"/>
<path d="M48.69 15.6527C48.3913 15.7995 48.0777 15.9534 47.7617 16.1087L59.9679 19.2031L60.9827 18.7434L48.69 15.6527Z" fill="#738889"/>
<path d="M46.9911 16.4882C46.5939 16.6838 46.2122 16.8719 45.875 17.0383L57.658 20.25L59.1334 19.5817L46.9911 16.4882Z" fill="#738889"/>
<path d="M50.4123 14.8093C50.2207 14.9032 49.9379 15.0417 49.5977 15.2086L61.9272 18.3164L62.9268 17.8637L50.4123 14.8093Z" fill="#738889"/>
<path d="M35.4994 15.2069C35.1644 15.0424 34.8858 14.9058 34.6848 14.8078L22.1641 17.8637L23.1636 18.3164L35.4994 15.2069Z" fill="#738889"/>
<path d="M37.3288 16.1083C37.0111 15.9516 36.6983 15.7975 36.4025 15.6519L24.1055 18.7437L25.12 19.2031L37.3288 16.1083Z" fill="#738889"/>
<path d="M25.957 19.5817L27.4324 20.25L39.2152 17.0383C38.8613 16.8637 38.4833 16.6769 38.1004 16.4882L25.957 19.5817Z" fill="#738889"/>
<path d="M62.5287 20.5927L61.9023 20.8764L65.8657 21.3828L62.5287 20.5927Z" fill="#738889"/>
<path d="M63.582 20.1184L66.27 20.8047L66.7017 20.1805L64.6072 19.654L63.582 20.1184Z" fill="#738889"/>
<path d="M22.5575 20.5903L19.2227 21.3828L23.1887 20.8762L22.5575 20.5903Z" fill="#738889"/>
<path d="M21.5123 20.1167L18.8313 20.8164L18.3906 20.1793L20.4871 19.6523L21.5123 20.1167Z" fill="#738889"/>
<path d="M31.3032 32.4891H24.8446L23.6911 30.7199L20.7656 31.1886L22.2116 33.7383H30.9115L31.3032 32.4891Z" fill="#738889"/>
<path d="M62.8774 33.7383L64.3238 31.1882L63.1146 30.9945L61.3984 30.7194L60.2445 32.4891H53.7891L54.1806 33.7383H62.8774Z" fill="#738889"/>
<path d="M50.8903 32.4891H34.2055L33.8906 33.7383H51.2049L51.0418 33.0903L50.8903 32.4891Z" fill="#738889"/>
<path d="M32.0798 30.0166L32.2908 29.3431L25.4844 30.4338L26.3678 31.7109H31.5485L31.8761 30.6658H29.9061L30.5553 30.0166H32.0798Z" fill="#738889"/>
<path d="M50.4307 30.6658H34.6657L34.5142 31.2668L34.4023 31.7109H50.6941L50.6064 31.3632L50.5822 31.2668L50.4307 30.6658Z" fill="#738889"/>
<path d="M59.6085 30.4334L52.8047 29.3431L53.0159 30.0166H54.5402L55.1894 30.6658H53.2194L53.5472 31.7109H58.7247L59.6079 30.4343L59.6111 30.4338L59.6085 30.4334Z" fill="#738889"/>
<path d="M28.4637 27.5469L30.7398 27.3047L26.4765 22.7021L24.5625 22.9488L28.4637 27.5469Z" fill="#738889"/>
<path d="M23.0908 23.1413L20.6562 23.4551L23.8299 28.043L26.6635 27.7415L23.0908 23.1413Z" fill="#738889"/>
<path d="M54.3555 27.3049L56.629 27.5469L60.53 22.9486L58.619 22.7023L54.3555 27.3049Z" fill="#738889"/>
<path d="M42.5489 18.2234L29.7305 22.0291L32.4924 24.7383L41.1532 22.1603V22.4044L41.7423 22.7808H43.3552L43.9446 22.4044V22.1603L52.6051 24.7383L55.3672 22.0291L42.5489 18.2234Z" fill="#738889"/>
</svg>
