<svg width="127" height="26" viewBox="0 0 127 26" fill="none" xmlns="http://www.w3.org/2000/svg">
<g clip-path="url(#clip0_5007_3905)">
<path d="M4.76885 17.0501C4.76885 18.5095 5.08917 19.6299 5.50784 20.3078C6.05676 21.1956 6.8755 21.5718 7.71018 21.5718C8.78676 21.5718 9.77164 21.3046 11.6696 18.6796C13.1901 16.5756 14.9818 13.6223 16.1873 11.7709L18.2288 8.63416C19.647 6.45575 21.2884 4.0341 23.1704 2.39264C24.7069 1.0529 26.3643 0.308594 28.0323 0.308594C30.8328 0.308594 33.5003 1.93144 35.5418 4.97511C37.7761 8.30853 38.8606 12.5072 38.8606 16.8401C38.8606 19.4159 38.3529 21.3086 37.489 22.8038C36.6543 24.2499 35.0275 25.6947 32.2908 25.6947V21.5718C34.634 21.5718 35.2189 19.4186 35.2189 16.9544C35.2189 13.4429 34.4001 9.54594 32.5965 6.76144C31.3166 4.78638 29.6578 3.57954 27.833 3.57954C25.8592 3.57954 24.2709 5.06815 22.4859 7.72239C21.537 9.13258 20.5627 10.8511 19.4689 12.7903L18.2647 14.9235C15.8457 19.2126 15.233 20.1895 14.0235 21.8017C11.9035 24.6247 10.0933 25.6947 7.71018 25.6947C4.88316 25.6947 3.0955 24.4706 1.98835 22.6257C1.08455 21.1225 0.640625 19.1501 0.640625 16.9026L4.76885 17.0501Z" fill="#738889"/>
<path d="M3.89453 5.26619C5.78719 2.34878 8.51852 0.308594 11.6512 0.308594C13.4655 0.308594 15.2691 0.845556 17.1524 2.38334C19.2126 4.06467 21.4083 6.83321 24.1476 11.3961L25.1298 13.0335C27.5009 16.9837 28.85 19.0159 29.6395 19.9742C30.6549 21.2049 31.366 21.5718 32.2897 21.5718C34.6329 21.5718 35.2178 19.4186 35.2178 16.9544L38.8595 16.8401C38.8595 19.4159 38.3518 21.3086 37.4879 22.8038C36.6532 24.2499 35.0264 25.6947 32.2897 25.6947C30.5885 25.6947 29.0812 25.3252 27.4145 23.7528C26.1333 22.546 24.6354 20.4021 23.483 18.4749L20.0552 12.7491C18.3354 9.87556 16.7577 7.73302 15.8446 6.76277C14.8624 5.71942 13.5997 4.45942 11.5848 4.45942C9.95396 4.45942 8.56903 5.60378 7.41004 7.35423L3.89453 5.26619Z" fill="#738889"/>
<path d="M11.5859 4.45942C9.95506 4.45942 8.57012 5.60378 7.41113 7.35423C5.77233 9.82771 4.76885 13.512 4.76885 17.0501C4.76885 18.5095 5.08917 19.6299 5.50784 20.3078L1.98835 22.6257C1.08455 21.1225 0.640625 19.1501 0.640625 16.9026C0.640625 12.8156 1.7624 8.55575 3.89563 5.26619C5.78828 2.34878 8.51961 0.308594 11.6523 0.308594L11.5859 4.45942Z" fill="#738889"/>
<path d="M46.8867 1.11328H51.6622L59.7818 15.8026L67.9027 1.11328H72.5745V25.25H68.6789V6.75138L61.5575 19.5614H57.9024L50.7824 6.75138V25.25H46.8867V1.11328ZM84.7811 10.1127C81.9873 10.1127 80.3046 12.2154 79.9019 14.8191H89.3838C89.1884 12.137 87.6413 10.1127 84.7811 10.1127ZM76.0395 16.3024C76.0395 10.8238 79.5803 6.83645 84.8489 6.83645C90.0311 6.83645 93.1253 10.7733 93.1253 16.5948V17.6647H79.9019C80.3711 20.4971 82.2505 22.4057 85.2808 22.4057C87.6985 22.4057 89.2097 21.668 90.6425 20.319L92.7119 22.8536C90.7621 24.6466 88.282 25.6806 85.1426 25.6806C79.4394 25.6806 76.0395 21.5218 76.0395 16.3024ZM97.8489 10.4583H94.263V7.26841H97.8489V1.99315H101.608V7.26841H107.056V10.4583H101.608V18.5433C101.608 21.3039 102.49 22.2847 104.659 22.2847C105.65 22.2847 106.217 22.1997 107.056 22.0601V25.2154C106.011 25.5105 105.014 25.6461 103.935 25.6461C99.8772 25.6461 97.8489 23.4291 97.8489 18.9912V10.4583ZM122.883 13.5604C122.128 11.6545 120.444 10.2509 117.969 10.2509C114.753 10.2509 112.694 12.533 112.694 16.2506C112.694 19.8751 114.589 22.2675 117.815 22.2675C120.351 22.2675 122.161 20.7921 122.883 18.9566V13.5604ZM126.642 25.25H122.952V22.7327C121.921 24.2146 120.044 25.6806 117.004 25.6806C112.116 25.6806 108.849 21.5883 108.849 16.2506C108.849 10.8623 112.194 6.83645 117.211 6.83645C119.692 6.83645 121.637 7.82797 122.952 9.57841V7.26841H126.642V25.25Z" fill="#738889"/>
</g>
<defs>
<clipPath id="clip0_5007_3905">
<rect width="126" height="25.3861" fill="white" transform="translate(0.640625 0.308594)"/>
</clipPath>
</defs>
</svg>
