<svg width="175" height="38" viewBox="0 0 175 38" fill="none" xmlns="http://www.w3.org/2000/svg">
<g clip-path="url(#clip0_5007_3898)">
<path d="M72.6306 7.79309V30.2069H68.7508V12.6183H68.6991L61.7673 30.2069H59.1808L52.0938 12.6183H52.042V30.2069H48.4727V7.79309H54.0595L60.474 24.3959H60.5775L67.3541 7.79309H72.6306ZM75.8379 9.50526C75.8379 8.88265 76.0448 8.36381 76.5103 7.94874C76.9759 7.53367 77.4932 7.32614 78.114 7.32614C78.7865 7.32614 79.3555 7.53367 79.7693 7.94874C80.1832 8.36381 80.4418 8.88265 80.4418 9.50526C80.4418 10.1279 80.2349 10.6467 79.7693 11.0618C79.3038 11.4768 78.7865 11.6844 78.114 11.6844C77.4415 11.6844 76.9242 11.4768 76.5103 11.0618C76.0965 10.5948 75.8379 10.076 75.8379 9.50526ZM80.028 14.1229V30.2069H76.2517V14.1229H80.028ZM91.4603 27.457C92.0294 27.457 92.6501 27.3533 93.3226 27.042C93.9951 26.7825 94.6159 26.4193 95.1849 26.0043V29.5324C94.5641 29.8956 93.8916 30.155 93.1157 30.3106C92.3397 30.4663 91.5121 30.57 90.5809 30.57C88.2013 30.57 86.2873 29.8437 84.8389 28.339C83.3387 26.8344 82.6145 24.9147 82.6145 22.6318C82.6145 20.0377 83.3904 17.9104 84.8906 16.2501C86.3908 14.5899 88.5117 13.7597 91.3051 13.7597C92.0294 13.7597 92.7536 13.8635 93.4261 14.0191C94.1503 14.1748 94.7193 14.4342 95.1331 14.6417V18.2736C94.5641 17.8585 93.9434 17.4953 93.3743 17.2878C92.7536 17.0803 92.1328 16.9246 91.512 16.9246C90.0119 16.9246 88.8221 17.3916 87.8909 18.3774C86.9598 19.3632 86.546 20.6603 86.546 22.3205C86.546 23.9289 87.0115 25.226 87.8909 26.108C88.7704 26.9901 89.9601 27.457 91.4603 27.457ZM105.893 13.8635C106.203 13.8635 106.462 13.8635 106.721 13.9154C106.979 13.9673 107.186 14.0191 107.341 14.071V17.9104C107.135 17.7548 106.876 17.5991 106.462 17.4953C106.048 17.3916 105.634 17.2878 105.065 17.2878C104.134 17.2878 103.358 17.7029 102.737 18.4811C102.117 19.2594 101.755 20.4527 101.755 22.113V30.2069H97.9783V14.1229H101.755V16.6652H101.806C102.168 15.7832 102.686 15.1087 103.358 14.5899C104.082 14.1229 104.91 13.8635 105.893 13.8635ZM107.548 22.4243C107.548 19.7782 108.324 17.651 109.773 16.0945C111.273 14.538 113.342 13.7597 115.98 13.7597C118.463 13.7597 120.429 14.4861 121.826 15.9907C123.223 17.4953 123.947 19.5188 123.947 22.0611C123.947 24.6553 123.171 26.7307 121.722 28.2872C120.222 29.8437 118.205 30.6219 115.618 30.6219C113.135 30.6219 111.169 29.8956 109.721 28.4428C108.273 26.9382 107.548 24.9147 107.548 22.4243ZM111.48 22.2687C111.48 23.9289 111.842 25.226 112.618 26.108C113.394 26.9901 114.48 27.457 115.877 27.457C117.222 27.457 118.308 27.042 119.032 26.108C119.757 25.226 120.119 23.9289 120.119 22.1649C120.119 20.4527 119.757 19.1556 119.032 18.2217C118.308 17.3397 117.222 16.8727 115.929 16.8727C114.532 16.8727 113.497 17.3397 112.721 18.2736C111.842 19.2594 111.48 20.5565 111.48 22.2687ZM129.585 18.3774C129.585 18.8962 129.741 19.3632 130.103 19.6745C130.465 19.9858 131.189 20.349 132.379 20.8159C133.879 21.4385 134.965 22.113 135.534 22.8394C136.155 23.6176 136.465 24.4997 136.465 25.5892C136.465 27.0938 135.896 28.2872 134.707 29.2211C133.569 30.155 131.965 30.57 129.999 30.57C129.327 30.57 128.602 30.4663 127.775 30.3106C126.947 30.155 126.275 29.9474 125.706 29.688V25.9524C126.378 26.4193 127.154 26.8344 127.93 27.0938C128.706 27.3533 129.43 27.5089 130.103 27.5089C130.93 27.5089 131.603 27.4051 131.965 27.1457C132.379 26.8863 132.586 26.5231 132.586 25.9524C132.586 25.4336 132.379 25.0185 131.965 24.6034C131.551 24.2402 130.723 23.8252 129.585 23.3582C128.189 22.7875 127.206 22.113 126.637 21.3866C126.068 20.6603 125.757 19.7263 125.757 18.5849C125.757 17.1322 126.326 15.9388 127.464 15.0049C128.602 14.071 130.103 13.6041 131.913 13.6041C132.482 13.6041 133.103 13.656 133.775 13.8116C134.448 13.9673 135.069 14.1229 135.534 14.2786V17.9623C135.017 17.651 134.448 17.3397 133.775 17.0803C133.103 16.8209 132.431 16.7171 131.81 16.7171C131.086 16.7171 130.517 16.8727 130.154 17.1322C129.792 17.4953 129.585 17.8585 129.585 18.3774ZM138.069 22.4243C138.069 19.7782 138.845 17.651 140.293 16.0945C141.794 14.538 143.863 13.7597 146.501 13.7597C148.984 13.7597 150.95 14.4861 152.347 15.9907C153.743 17.4953 154.468 19.5188 154.468 22.0611C154.468 24.6553 153.692 26.7307 152.243 28.2872C150.743 29.8437 148.725 30.6219 146.139 30.6219C143.656 30.6219 141.69 29.8956 140.242 28.4428C138.845 26.9382 138.069 24.9147 138.069 22.4243ZM142.001 22.2687C142.001 23.9289 142.363 25.226 143.139 26.108C143.915 26.9901 145.001 27.457 146.398 27.457C147.743 27.457 148.829 27.042 149.553 26.108C150.277 25.226 150.639 23.9289 150.639 22.1649C150.639 20.4527 150.277 19.1556 149.553 18.2217C148.829 17.3397 147.743 16.8727 146.449 16.8727C145.053 16.8727 144.018 17.3397 143.242 18.2736C142.414 19.2594 142.001 20.5565 142.001 22.2687ZM167.038 17.2359H161.399V30.2069H157.571V17.2359H154.881V14.1229H157.571V11.8919C157.571 10.2316 158.14 8.83077 159.227 7.74121C160.313 6.65165 161.71 6.13281 163.417 6.13281C163.882 6.13281 164.296 6.1847 164.658 6.1847C165.02 6.1847 165.331 6.28846 165.589 6.39223V9.66091C165.486 9.60902 165.227 9.50525 164.917 9.40149C164.607 9.29772 164.244 9.24584 163.831 9.24584C163.055 9.24584 162.434 9.50525 162.02 9.97221C161.606 10.4392 161.399 11.2174 161.399 12.1513V14.071H167.038V10.4392L170.814 9.29772V14.071H174.642V17.184H170.814V24.7072C170.814 25.693 171.021 26.3675 171.332 26.7825C171.694 27.1976 172.263 27.4051 173.039 27.4051C173.246 27.4051 173.504 27.3533 173.815 27.2495C174.125 27.1457 174.384 27.042 174.59 26.8863V29.9993C174.332 30.155 173.97 30.2587 173.401 30.3625C172.832 30.4663 172.314 30.5182 171.745 30.5182C170.142 30.5182 168.952 30.1031 168.176 29.273C167.4 28.4428 166.986 27.1457 166.986 25.4336L167.038 17.2359Z" fill="#738889"/>
<path d="M17.6917 0.320312H0V18.0645H17.6917V0.320312Z" fill="#738889"/>
<path d="M37.2464 0.320312H19.5547V18.0645H37.2464V0.320312Z" fill="#738889"/>
<path d="M17.6917 19.9336H0V37.6778H17.6917V19.9336Z" fill="#738889"/>
<path d="M37.2464 19.9336H19.5547V37.6778H37.2464V19.9336Z" fill="#738889"/>
</g>
<defs>
<clipPath id="clip0_5007_3898">
<rect width="174.641" height="37.3563" fill="white" transform="translate(0 0.320312)"/>
</clipPath>
</defs>
</svg>
