<svg width="103" height="24" viewBox="0 0 103 24" fill="none" xmlns="http://www.w3.org/2000/svg">
<path d="M98.5407 10.8964V10.8303C100.157 10.2289 101.327 8.39174 101.327 6.27311C101.327 4.08826 100.378 0.700718 94.8994 0.700718H76.1904V20.4082L67.716 0.700718H58.5022L51.2305 17.4345L44.036 0.700718H34.8223L27.2967 18.0303C27.4236 17.4951 27.5009 16.9159 27.5009 16.2758C27.5009 12.2869 24.9685 10.5766 20.7533 9.8483C18.5409 9.46755 12.7479 8.61241 10.8444 8.29792C9.70788 8.10495 9.16718 7.66336 9.16718 6.90198C9.16718 5.41786 10.5631 4.68962 13.0955 4.68962C16.5437 4.68962 17.7796 5.76547 18.0003 7.31582H26.552C26.0775 1.96409 21.1341 0 12.9355 0C3.02652 0 1.18925 4.21521 1.18925 7.18899C1.18925 10.5435 2.99345 12.8883 7.64997 13.5834L15.1865 14.7255C17.8127 15.1338 18.7616 15.5475 18.7616 16.7503C18.7616 18.6813 16.7037 19.1282 14.8058 19.1282C10.8775 19.1282 9.92855 18.0469 9.73545 16.3366H0.808594C1.25 22.6373 6.79475 24 14.4527 24C16.9354 24 23.7878 23.9559 26.4306 20.022L25.0071 23.3048H33.0844L34.4416 19.6303H44.323L45.6858 23.3048H56.7588L58.1216 19.6303H67.9974L69.3602 23.3048H94.2705C101.2 23.3048 102.469 19.2551 102.469 16.5627C102.469 13.3627 100.919 11.4315 98.5407 10.8964ZM36.2181 14.9461L39.3519 6.39444H39.4129L42.5521 14.9461H36.2181ZM59.8926 14.9461L63.0264 6.39444H63.0925L66.2262 14.9461H59.8926ZM83.7215 5.57239H91.2305C92.8416 5.57239 93.5367 6.4607 93.5367 7.47588C93.5367 8.51864 92.8416 9.40685 91.2305 9.40685H83.7215V5.57239ZM91.8263 18.4276H83.7215V13.8372H91.8263C93.4153 13.8372 94.4911 14.5986 94.4911 16.0883C94.4911 17.5724 93.4153 18.4276 91.8263 18.4276Z" fill="#738889"/>
</svg>
