<svg width="36" height="36" viewBox="0 0 36 36" fill="none" xmlns="http://www.w3.org/2000/svg">
<g clip-path="url(#clip0_5007_3894)">
<path d="M35.8686 26.2086C35.619 25.5266 35.1409 25.1645 34.5995 24.8621C34.4975 24.8023 34.4026 24.7531 34.3253 24.718C34.1635 24.6336 33.9983 24.5527 33.8331 24.4684C32.1421 23.5719 30.8202 22.4398 29.9061 21.1004C29.5967 20.6469 29.3823 20.2391 29.2311 19.9051C29.1538 19.6801 29.1573 19.5535 29.2135 19.4375C29.2557 19.3496 29.3682 19.2582 29.4315 19.2125C29.7233 19.0191 30.0221 18.8258 30.226 18.6957C30.5881 18.4602 30.8764 18.2738 31.0592 18.1473C31.7553 17.6621 32.2405 17.1453 32.5428 16.5688C32.9717 15.7566 33.0245 14.8285 32.694 13.9566C32.237 12.7473 31.0909 11.9949 29.7057 11.9949C29.4174 11.9949 29.1256 12.0266 28.8374 12.0898C28.76 12.1074 28.6862 12.125 28.6124 12.1426C28.6264 11.3199 28.6053 10.441 28.5315 9.5832C28.2713 6.55977 27.2131 4.97422 26.1092 3.71211C25.6487 3.18477 24.8471 2.41484 23.6448 1.72578C21.9678 0.7625 20.0694 0.277344 17.9987 0.277344C15.935 0.277344 14.0366 0.7625 12.3596 1.72227C11.1503 2.41133 10.3487 3.18477 9.89166 3.70859C8.78775 4.9707 7.72955 6.55625 7.46939 9.57969C7.39557 10.4375 7.37799 11.3164 7.38854 12.1391C7.31471 12.1215 7.23736 12.1039 7.16354 12.0863C6.87525 12.023 6.57994 11.9914 6.29518 11.9914C4.91002 11.9914 3.76393 12.7437 3.30689 13.9531C2.97643 14.825 3.02916 15.7531 3.45807 16.5652C3.76041 17.1418 4.24908 17.6586 4.94166 18.1437C5.12799 18.2738 5.41275 18.4602 5.77486 18.6922C5.97174 18.8188 6.2565 19.0051 6.53775 19.1914C6.57994 19.2195 6.73111 19.332 6.78385 19.4375C6.84361 19.557 6.84361 19.6871 6.75572 19.9262C6.60807 20.2531 6.39361 20.6539 6.09127 21.0969C5.19479 22.4082 3.91158 23.5191 2.27682 24.4051C1.40846 24.8656 0.508457 25.1715 0.12877 26.2051C-0.159512 26.9855 0.030332 27.875 0.758066 28.6238C0.997129 28.8805 1.29947 29.109 1.67916 29.3199C2.57213 29.8121 3.3315 30.0547 3.92916 30.2199C4.03463 30.2516 4.27721 30.3289 4.38268 30.4238C4.64986 30.6559 4.61119 31.0074 4.96627 31.5207C5.18072 31.8406 5.42682 32.0586 5.63072 32.1992C6.37252 32.7125 7.20924 32.7441 8.09518 32.7793C8.89322 32.8109 9.80025 32.8461 10.8338 33.1871C11.2628 33.3277 11.7092 33.602 12.2225 33.9184C13.46 34.6812 15.1581 35.7219 17.9952 35.7219C20.8358 35.7219 22.5409 34.6742 23.7889 33.9113C24.3022 33.5984 24.7452 33.3242 25.16 33.1871C26.1936 32.8461 27.1006 32.8109 27.8987 32.7793C28.7846 32.7441 29.6178 32.7125 30.3631 32.1992C30.5952 32.0375 30.8905 31.7738 31.1225 31.373C31.3756 30.9406 31.3721 30.6348 31.6112 30.4273C31.7096 30.343 31.9241 30.2691 32.0401 30.234C32.6413 30.0687 33.4112 29.8262 34.3217 29.3234C34.726 29.102 35.0389 28.8594 35.2885 28.5816C35.292 28.5781 35.2956 28.5746 35.2991 28.5711C35.9776 27.8328 36.1499 26.9715 35.8686 26.2086ZM33.3479 27.5621C31.8081 28.4129 30.785 28.3215 29.9905 28.8312C29.3155 29.2672 29.7128 30.2059 29.2241 30.5434C28.6194 30.9617 26.837 30.5152 24.5342 31.2746C22.6358 31.9039 21.4229 33.7074 18.0022 33.7074C14.5745 33.7074 13.3967 31.9109 11.4702 31.2746C9.16744 30.5152 7.3815 30.9617 6.78033 30.5434C6.29166 30.2059 6.68893 29.2672 6.01393 28.8312C5.2194 28.318 4.19635 28.4094 2.6565 27.5621C1.67564 27.0207 2.23111 26.6867 2.55807 26.5285C8.13385 23.832 9.01978 19.6625 9.06197 19.3496C9.11119 18.977 9.16393 18.6816 8.7526 18.2984C8.35533 17.9293 6.58697 16.8359 6.0983 16.4949C5.28619 15.9289 4.93111 15.3629 5.19479 14.6668C5.3776 14.1852 5.8276 14.0059 6.30221 14.0059C6.44986 14.0059 6.60104 14.0234 6.74518 14.0551C7.63463 14.2484 8.49947 14.6949 8.99869 14.8145C9.069 14.832 9.12877 14.8391 9.1815 14.8391C9.44869 14.8391 9.5401 14.7055 9.52252 14.3996C9.46627 13.4258 9.32564 11.5273 9.48033 9.75195C9.69127 7.31211 10.4788 6.10273 11.4139 5.03047C11.8639 4.51719 13.9733 2.28828 18.0057 2.28828C22.0487 2.28828 24.1475 4.51719 24.5975 5.03047C25.5327 6.09922 26.3202 7.30859 26.5311 9.75195C26.6858 11.5273 26.5522 13.4258 26.4889 14.3996C26.4678 14.7195 26.5663 14.8391 26.8299 14.8391C26.8827 14.8391 26.946 14.832 27.0128 14.8145C27.512 14.6949 28.3768 14.2484 29.2663 14.0551C29.4104 14.0234 29.5616 14.0059 29.7092 14.0059C30.1838 14.0059 30.6338 14.1887 30.8167 14.6668C31.0803 15.3629 30.7217 15.9289 29.9131 16.4949C29.4245 16.8359 27.6561 17.9293 27.2588 18.2984C26.8475 18.6781 26.9003 18.9734 26.9495 19.3496C26.9881 19.6625 27.8776 23.832 33.4534 26.5285C33.7698 26.6867 34.3288 27.0207 33.3479 27.5621Z" fill="#738889"/>
</g>
<defs>
<clipPath id="clip0_5007_3894">
<rect width="36" height="36" fill="white"/>
</clipPath>
</defs>
</svg>
