<svg width="613" height="57" viewBox="0 0 613 57" fill="none" xmlns="http://www.w3.org/2000/svg">
<path d="M0.5 0.5H28.5V28.5L0.5 0.5Z" fill="#324E53"/>
<path d="M0.5 28.5H28.5V56.5L0.5 28.5Z" fill="#324E53"/>
<path d="M28.5 0.5H56.5V28.5L28.5 0.5Z" fill="#FF6D00"/>
<path d="M28.5 28.5H56.5V56.5L28.5 28.5Z" fill="#324E53"/>
<path d="M576.179 55.1824V1.81756H612.873V10.1419H585.501V23.5203H608.656V31.8446H585.501V46.8581H612.873V55.1824H576.179Z" fill="#1F2424"/>
<path d="M550.537 34.5203H540.402V55.1824H530.932V1.81756H550.537C562.744 1.81756 569.772 7.76351 569.772 18.1689C569.772 28.5743 562.67 34.5203 550.537 34.5203ZM540.402 9.99323V26.3446H550.019C556.751 26.3446 560.45 23.4459 560.45 18.1689C560.45 12.8176 556.825 9.99323 550.019 9.99323H540.402Z" fill="#1F2424"/>
<path d="M523.415 28.5C523.415 36.75 521.566 43.3649 517.941 48.4189C514.316 53.473 509.581 56 503.589 56C497.596 56 492.788 53.473 489.163 48.4189C485.538 43.3649 483.762 36.75 483.762 28.5C483.762 20.25 485.538 13.6351 489.163 8.58108C492.788 3.52702 497.596 1 503.589 1C509.581 1 514.316 3.52702 517.941 8.58108C521.566 13.6351 523.415 20.25 523.415 28.5ZM514.242 28.5C514.242 16.5338 510.321 9.39865 503.589 9.39865C496.857 9.39865 492.936 16.5338 492.936 28.5C492.936 40.4662 496.857 47.6014 503.589 47.6014C510.321 47.6014 514.242 40.4662 514.242 28.5Z" fill="#1F2424"/>
<path d="M459.526 1C468.921 1 475.949 6.64865 478.834 16.3851L470.031 19.4324C468.551 13.1149 464.704 9.39865 459.452 9.39865C455.827 9.39865 452.793 11.1824 450.5 14.75C448.207 18.2432 447.023 22.8514 447.023 28.5C447.023 34.1487 448.207 38.7568 450.5 42.3243C452.793 45.8176 455.827 47.6014 459.452 47.6014C464.704 47.6014 468.551 43.8851 470.031 37.5676L478.834 40.6149C475.949 50.3514 468.921 56 459.526 56C453.237 56 448.059 53.473 443.99 48.3446C439.921 43.2162 437.924 36.6014 437.924 28.5C437.924 20.3987 439.921 13.8581 443.99 8.72973C448.059 3.60135 453.237 1 459.526 1Z" fill="#1F2424"/>
<path d="M412.133 56C407.473 56 403.034 54.9595 398.965 52.9527C394.896 50.9459 391.789 48.2703 389.792 44.9257L397.116 38.7568C400.889 44.6284 406.437 47.973 412.429 47.973C418.718 47.973 422.935 44.8514 422.935 40.0203C422.935 37.1216 421.529 35.3378 417.756 34.0743C416.794 33.7027 413.983 32.9595 409.47 31.8446C403.182 30.2838 400.445 29.1689 398.151 27.6824C394.6 25.2297 392.899 21.8851 392.899 17.2027C392.899 12.4459 394.674 8.58108 398.299 5.53378C401.924 2.48649 406.511 1 412.059 1C420.567 1 427.965 4.71622 431.812 10.7365L424.932 16.6824C421.603 11.4054 417.312 8.9527 411.764 8.9527C406.067 8.9527 402.072 11.8514 402.072 16.2365C402.072 18.0203 402.738 19.4324 403.996 20.3986C405.327 21.3649 408.434 22.4797 413.391 23.5946C417.46 24.5608 420.345 25.3041 421.899 25.8986C423.526 26.4189 424.932 27.0878 426.116 27.7568C430.259 30.2095 432.256 33.9257 432.256 39.0541C432.256 44.0338 430.332 48.1216 426.486 51.3176C422.713 54.4392 417.904 56 412.133 56Z" fill="#1F2424"/>
<path d="M386.417 28.5C386.417 36.75 384.568 43.3649 380.943 48.4189C377.318 53.473 372.583 56 366.591 56C360.598 56 355.79 53.473 352.165 48.4189C348.54 43.3649 346.764 36.75 346.764 28.5C346.764 20.25 348.54 13.6351 352.165 8.58108C355.79 3.52702 360.598 1 366.591 1C372.583 1 377.318 3.52702 380.943 8.58108C384.568 13.6351 386.417 20.25 386.417 28.5ZM377.244 28.5C377.244 16.5338 373.323 9.39865 366.591 9.39865C359.859 9.39865 355.938 16.5338 355.938 28.5C355.938 40.4662 359.859 47.6014 366.591 47.6014C373.323 47.6014 377.244 40.4662 377.244 28.5Z" fill="#1F2424"/>
<path d="M315.5 55.1824H302.997V1.81756H315.5C323.415 1.81756 329.556 4.19594 333.921 8.95269C338.359 13.6351 340.579 20.1757 340.579 28.5C340.579 36.8243 338.359 43.3649 333.921 48.1216C329.556 52.804 323.415 55.1824 315.5 55.1824ZM312.245 9.99323V47.0067H315.5C325.783 47.0067 331.257 40.4662 331.257 28.5C331.257 16.3851 325.783 9.99323 315.426 9.99323H312.245Z" fill="#1F2424"/>
<path d="M280.388 46.8581H294.518V55.1824H256.789V46.8581H270.919V10.1419H256.789V1.81756H294.518V10.1419H280.388V46.8581Z" fill="#1F2424"/>
<path d="M212.06 55.1824V1.81756H248.754V10.1419H221.381V23.5203H244.537V31.8446H221.381V46.8581H248.754V55.1824H212.06Z" fill="#1F2424"/>
<path d="M204.543 55.1824H170.068V1.81756H179.537V46.8581H204.543V55.1824Z" fill="#1F2424"/>
<path d="M125.339 55.1824V1.81756H162.033V10.1419H134.661V23.5203H157.816V31.8446H134.661V46.8581H162.033V55.1824H125.339Z" fill="#1F2424"/>
<path d="M118.562 1.81756V10.1419H102.952V55.1824H93.4828V10.1419H77.873V1.81756H118.562Z" fill="#1F2424"/>
</svg>
