<svg width="624" height="56" viewBox="0 0 624 56" fill="none" xmlns="http://www.w3.org/2000/svg">
<path d="M27.7924 55.6845L0 27.8921H27.7924V55.6845Z" fill="#324E53"/>
<path d="M27.7924 27.7924L0 0L27.7924 3.31422e-07V27.7924Z" fill="#324E53"/>
<path d="M55.6845 55.6845L27.8921 27.8921H55.6845V55.6845Z" fill="#324E53"/>
<path d="M55.6845 27.7924L27.8921 0L55.6845 3.31422e-07V27.7924Z" fill="#FF6D00"/>
<path d="M586.854 54.7283V0.956601H624V9.34438H596.291V22.8247H619.731V31.2125H596.291V46.3405H624V54.7283H586.854Z" fill="#FAF9F7"/>
<path d="M560.896 33.9086H550.636V54.7283H541.05V0.956601H560.896C573.253 0.956601 580.368 6.94787 580.368 17.4326C580.368 27.9173 573.179 33.9086 560.896 33.9086ZM550.636 9.1946V25.6706H560.372C567.187 25.6706 570.932 22.7499 570.932 17.4326C570.932 12.0405 567.262 9.1946 560.372 9.1946H550.636Z" fill="#FAF9F7"/>
<path d="M533.441 27.8424C533.441 36.1553 531.569 42.8206 527.899 47.9132C524.229 53.0058 519.436 55.5521 513.37 55.5521C507.304 55.5521 502.436 53.0058 498.766 47.9132C495.097 42.8206 493.299 36.1553 493.299 27.8424C493.299 19.5296 495.097 12.8643 498.766 7.77168C502.436 2.6791 507.304 0.132812 513.37 0.132812C519.436 0.132812 524.229 2.6791 527.899 7.77168C531.569 12.8643 533.441 19.5296 533.441 27.8424ZM524.154 27.8424C524.154 15.785 520.185 8.59548 513.37 8.59548C506.555 8.59548 502.586 15.785 502.586 27.8424C502.586 39.8999 506.555 47.0894 513.37 47.0894C520.185 47.0894 524.154 39.8999 524.154 27.8424Z" fill="#FAF9F7"/>
<path d="M468.764 0.132812C478.275 0.132812 485.39 5.82452 488.311 15.6352L479.399 18.7058C477.901 12.34 474.007 8.59548 468.689 8.59548C465.02 8.59548 461.949 10.3929 459.628 13.9876C457.306 17.5075 456.108 22.1507 456.108 27.8424C456.108 33.5341 457.306 38.1774 459.628 41.7721C461.949 45.292 465.02 47.0894 468.689 47.0894C474.007 47.0894 477.901 43.3449 479.399 36.9791L488.311 40.0497C485.39 49.8604 478.275 55.5521 468.764 55.5521C462.399 55.5521 457.156 53.0058 453.037 47.8383C448.918 42.6708 446.896 36.0056 446.896 27.8424C446.896 19.6793 448.918 13.0889 453.037 7.92147C457.156 2.754 462.399 0.132812 468.764 0.132812Z" fill="#FAF9F7"/>
<path d="M420.788 55.5521C416.07 55.5521 411.577 54.5036 407.458 52.4815C403.339 50.4595 400.194 47.7634 398.171 44.3933L405.586 38.1774C409.405 44.0938 415.022 47.4639 421.088 47.4639C427.454 47.4639 431.723 44.3184 431.723 39.4505C431.723 36.5298 430.3 34.7324 426.48 33.4593C425.507 33.0848 422.661 32.3359 418.092 31.2125C411.727 29.6398 408.956 28.5165 406.634 27.0186C403.039 24.5472 401.317 21.1772 401.317 16.459C401.317 11.666 403.114 7.77168 406.784 4.70116C410.454 1.63063 415.097 0.132812 420.714 0.132812C429.326 0.132812 436.815 3.87736 440.709 9.94352L433.745 15.9348C430.375 10.6175 426.031 8.14614 420.414 8.14614C414.647 8.14614 410.603 11.0669 410.603 15.4854C410.603 17.2828 411.277 18.7058 412.55 19.6793C413.898 20.6529 417.044 21.7763 422.062 22.8996C426.181 23.8732 429.101 24.6221 430.674 25.2213C432.322 25.7455 433.745 26.4195 434.943 27.0935C439.137 29.5649 441.159 33.3095 441.159 38.4769C441.159 43.4946 439.212 47.6136 435.317 50.8339C431.498 53.9794 426.63 55.5521 420.788 55.5521Z" fill="#FAF9F7"/>
<path d="M394.756 27.8424C394.756 36.1553 392.883 42.8206 389.214 47.9132C385.544 53.0058 380.751 55.5521 374.685 55.5521C368.619 55.5521 363.751 53.0058 360.081 47.9132C356.412 42.8206 354.614 36.1553 354.614 27.8424C354.614 19.5296 356.412 12.8643 360.081 7.77168C363.751 2.6791 368.619 0.132812 374.685 0.132812C380.751 0.132812 385.544 2.6791 389.214 7.77168C392.883 12.8643 394.756 19.5296 394.756 27.8424ZM385.469 27.8424C385.469 15.785 381.5 8.59548 374.685 8.59548C367.87 8.59548 363.901 15.785 363.901 27.8424C363.901 39.8999 367.87 47.0894 374.685 47.0894C381.5 47.0894 385.469 39.8999 385.469 27.8424Z" fill="#FAF9F7"/>
<path d="M322.965 54.7283H310.308V0.956601H322.965C330.978 0.956601 337.194 3.35311 341.612 8.14613C346.106 12.8643 348.353 19.4547 348.353 27.8424C348.353 36.2302 346.106 42.8206 341.612 47.6136C337.194 52.3317 330.978 54.7283 322.965 54.7283ZM319.669 9.1946V46.4903H322.965C333.374 46.4903 338.916 39.8999 338.916 27.8424C338.916 15.6352 333.374 9.1946 322.89 9.1946H319.669Z" fill="#FAF9F7"/>
<path d="M287.421 46.3405H301.725V54.7283H263.531V46.3405H277.835V9.34438H263.531V0.956601H301.725V9.34438H287.421V46.3405Z" fill="#FAF9F7"/>
<path d="M218.251 54.7283V0.956601H255.397V9.34438H227.687V22.8247H251.128V31.2125H227.687V46.3405H255.397V54.7283H218.251Z" fill="#FAF9F7"/>
<path d="M210.641 54.7283H175.742V0.956601H185.328V46.3405H210.641V54.7283Z" fill="#FAF9F7"/>
<path d="M130.462 54.7283V0.956601H167.608V9.34438H139.899V22.8247H163.339V31.2125H139.899V46.3405H167.608V54.7283H130.462Z" fill="#FAF9F7"/>
<path d="M123.602 0.956601V9.34438H107.8V54.7283H98.2136V9.34438H82.4116V0.956601H123.602Z" fill="#FAF9F7"/>
</svg>
