<svg width="159" height="23" viewBox="0 0 159 23" fill="none" xmlns="http://www.w3.org/2000/svg">
<path d="M0 0H11.5V11.5L0 0Z" fill="#324E53"/>
<path d="M0 11.5H11.5V23L0 11.5Z" fill="#324E53"/>
<path d="M11.5 0H23V11.5L11.5 0Z" fill="#FF6D00"/>
<path d="M11.5 11.5H23V23L11.5 11.5Z" fill="#324E53"/>
<path d="M149.33 17.8068V5.19324H158.043V7.16081H151.543V10.323H157.042V12.2905H151.543V15.8392H158.043V17.8068H149.33Z" fill="#1F2424"/>
<path d="M143.241 12.923H140.834V17.8068H138.585V5.19324H143.241C146.139 5.19324 147.808 6.59865 147.808 9.05811C147.808 11.5176 146.122 12.923 143.241 12.923ZM140.834 7.12567V10.9905H143.118C144.716 10.9905 145.595 10.3054 145.595 9.05811C145.595 7.79324 144.734 7.12567 143.118 7.12567H140.834Z" fill="#1F2424"/>
<path d="M136.8 11.5C136.8 13.45 136.361 15.0135 135.5 16.2081C134.64 17.4027 133.515 18 132.092 18C130.669 18 129.527 17.4027 128.667 16.2081C127.806 15.0135 127.384 13.45 127.384 11.5C127.384 9.55 127.806 7.98649 128.667 6.79189C129.527 5.5973 130.669 5 132.092 5C133.515 5 134.64 5.5973 135.5 6.79189C136.361 7.98649 136.8 9.55 136.8 11.5ZM134.622 11.5C134.622 8.67162 133.691 6.98513 132.092 6.98513C130.494 6.98513 129.563 8.67162 129.563 11.5C129.563 14.3284 130.494 16.0149 132.092 16.0149C133.691 16.0149 134.622 14.3284 134.622 11.5Z" fill="#1F2424"/>
<path d="M121.629 5C123.86 5 125.529 6.33513 126.214 8.63649L124.123 9.35676C123.772 7.86351 122.859 6.98513 121.611 6.98513C120.751 6.98513 120.03 7.40676 119.486 8.25C118.941 9.07568 118.66 10.1649 118.66 11.5C118.66 12.8351 118.941 13.9243 119.486 14.7676C120.03 15.5932 120.751 16.0149 121.611 16.0149C122.859 16.0149 123.772 15.1365 124.123 13.6432L126.214 14.3635C125.529 16.6649 123.86 18 121.629 18C120.136 18 118.906 17.4027 117.94 16.1905C116.973 14.9784 116.499 13.4149 116.499 11.5C116.499 9.58514 116.973 8.03919 117.94 6.82703C118.906 5.61487 120.136 5 121.629 5Z" fill="#1F2424"/>
<path d="M110.375 18C109.268 18 108.214 17.7541 107.248 17.2797C106.282 16.8054 105.544 16.173 105.07 15.3824L106.809 13.9243C107.705 15.3122 109.022 16.1027 110.445 16.1027C111.938 16.1027 112.94 15.3649 112.94 14.223C112.94 13.5378 112.606 13.1162 111.71 12.8176C111.482 12.7297 110.814 12.5541 109.742 12.2905C108.249 11.9216 107.599 11.6581 107.055 11.3068C106.211 10.727 105.807 9.93649 105.807 8.82973C105.807 7.70541 106.229 6.79189 107.09 6.07162C107.951 5.35135 109.04 5 110.357 5C112.378 5 114.134 5.87838 115.048 7.30135L113.414 8.70676C112.624 7.45946 111.605 6.87973 110.287 6.87973C108.934 6.87973 107.986 7.56486 107.986 8.60135C107.986 9.02297 108.144 9.35676 108.442 9.58514C108.759 9.81351 109.497 10.077 110.674 10.3405C111.64 10.5689 112.325 10.7446 112.694 10.8851C113.08 11.0081 113.414 11.1662 113.695 11.3243C114.679 11.9041 115.153 12.7824 115.153 13.9946C115.153 15.1716 114.697 16.1378 113.783 16.8932C112.887 17.6311 111.745 18 110.375 18Z" fill="#1F2424"/>
<path d="M104.268 11.5C104.268 13.45 103.829 15.0135 102.968 16.2081C102.107 17.4027 100.983 18 99.5602 18C98.1372 18 96.9953 17.4027 96.1345 16.2081C95.2737 15.0135 94.8521 13.45 94.8521 11.5C94.8521 9.55 95.2737 7.98649 96.1345 6.79189C96.9953 5.5973 98.1372 5 99.5602 5C100.983 5 102.107 5.5973 102.968 6.79189C103.829 7.98649 104.268 9.55 104.268 11.5ZM102.09 11.5C102.09 8.67162 101.159 6.98513 99.5602 6.98513C97.9615 6.98513 97.0304 8.67162 97.0304 11.5C97.0304 14.3284 97.9615 16.0149 99.5602 16.0149C101.159 16.0149 102.09 14.3284 102.09 11.5Z" fill="#1F2424"/>
<path d="M87.4278 17.8068H84.4589V5.19324H87.4278C89.3076 5.19324 90.7657 5.7554 91.8022 6.87973C92.8562 7.98648 93.3832 9.53243 93.3832 11.5C93.3832 13.4676 92.8562 15.0135 91.8022 16.1378C90.7657 17.2446 89.3076 17.8068 87.4278 17.8068ZM86.6549 7.12567V15.8743H87.4278C89.8697 15.8743 91.1697 14.3284 91.1697 11.5C91.1697 8.63648 89.8697 7.12567 87.4103 7.12567H86.6549Z" fill="#1F2424"/>
<path d="M79.0901 15.8392H82.4455V17.8068H73.4861V15.8392H76.8415V7.16081H73.4861V5.19324H82.4455V7.16081H79.0901V15.8392Z" fill="#1F2424"/>
<path d="M62.8645 17.8068V5.19324H71.5781V7.16081H65.0781V10.323H70.5767V12.2905H65.0781V15.8392H71.5781V17.8068H62.8645Z" fill="#1F2424"/>
<path d="M61.0795 17.8068H52.893V5.19324H55.1417V15.8392H61.0795V17.8068Z" fill="#1F2424"/>
<path d="M42.2715 17.8068V5.19324H50.985V7.16081H44.485V10.323H49.9837V12.2905H44.485V15.8392H50.985V17.8068H42.2715Z" fill="#1F2424"/>
<path d="M40.6622 5.19324V7.16081H36.9554V17.8068H34.7068V7.16081H31V5.19324H40.6622Z" fill="#1F2424"/>
</svg>
